<svg width="1055.6px" height="286.8800109863281px" xmlns="http://www.w3.org/2000/svg" viewBox="-277.79999999999995 -68.44000549316405 1055.6 286.8800109863281" style="background: rgba(255, 255, 255, 0);" preserveAspectRatio="xMidYMid"><defs><filter id="editing-extrusion" x="-100%" y="-100%" width="300%" height="300%"><feFlood result="color1" flood-color="#c2d2ee"></feFlood><feConvolveMatrix order="1,1" divisor="1" kernelMatrix="1" in="SourceAlpha" result="extrude"></feConvolveMatrix><feComposite in="color1" in2="extrude" result="comp-extrude" operator="in"></feComposite><feOffset dx="0.5" dy="0.5" in="comp-extrude" result="offset-extrude"></feOffset><feMerge><feMergeNode in="offset-extrude"></feMergeNode><feMergeNode in="SourceGraphic"></feMergeNode></feMerge></filter></defs><g filter="url(#editing-extrusion)"><g transform="translate(-134.77500343322754, 148.35500144958496)"><path d="M125.68-102.31L125.68 0L112.75 0L112.75-91.14L79.38 0L65.27 0L31.31-90.55L31.31 0L18.38 0L18.38-102.31L41.01-102.31L72.62-18.08L103.49-102.31L125.68-102.31ZM249.75-76.73L263.57-76.73L219.62 34.10L206.39 34.10L219.62 0.88L189.19-76.73L202.42-76.73L226.38-13.82L249.75-76.73ZM384.11-53.21L384.11-53.21Q398.81-46.89 398.81-28.66L398.81-28.66L398.81-28.66Q398.81-13.82 389.40-6.91L389.40-6.91L389.40-6.91Q379.99 0 362.94 0L362.94 0L327.07 0L327.07-102.31L363.97-102.31L363.97-102.31Q378.97-102.31 387.20-95.70L387.20-95.70L387.20-95.70Q395.43-89.08 395.43-75.56L395.43-75.56L395.43-75.56Q395.43-60.12 384.11-53.21L384.11-53.21ZM362.35-89.96L340.01-89.96L340.01-58.36L362.35-58.36L362.35-58.36Q372.50-58.36 376.98-62.03L376.98-62.03L376.98-62.03Q381.46-65.71 381.46-74.97L381.46-74.97L381.46-74.97Q381.46-83.50 376.98-86.73L376.98-86.73L376.98-86.73Q372.50-89.96 362.35-89.96L362.35-89.96ZM362.94-12.35L362.94-12.35Q374.56-12.35 379.70-15.88L379.70-15.88L379.70-15.88Q384.85-19.40 384.85-29.25L384.85-29.25L384.85-29.25Q384.85-39.10 379.63-42.63L379.63-42.63L379.63-42.63Q374.41-46.16 362.65-46.16L362.65-46.16L340.01-46.16L340.01-12.35L362.94-12.35ZM466.87 0L466.87-110.84L479.81-110.84L479.81 0L466.87 0ZM582.12 1.76L582.12 1.76Q565.36 1.76 555.95-9.19L555.95-9.19L555.95-9.19Q546.55-20.14 546.55-38.37L546.55-38.37L546.55-38.37Q546.55-56.59 555.95-67.55L555.95-67.55L555.95-67.55Q565.36-78.50 582.12-78.50L582.12-78.50L582.12-78.50Q598.88-78.50 608.29-67.55L608.29-67.55L608.29-67.55Q617.69-56.59 617.69-38.37L617.69-38.37L617.69-38.37Q617.69-20.14 608.29-9.19L608.29-9.19L608.29-9.19Q598.88 1.76 582.12 1.76L582.12 1.76ZM582.12-9.41L582.12-9.41Q592.85-9.41 598.29-17.35L598.29-17.35L598.29-17.35Q603.73-25.28 603.73-38.37L603.73-38.37L603.73-38.37Q603.73-51.45 598.29-59.39L598.29-59.39L598.29-59.39Q592.85-67.33 582.12-67.33L582.12-67.33L582.12-67.33Q571.39-67.33 566.02-59.39L566.02-59.39L566.02-59.39Q560.66-51.45 560.66-38.37L560.66-38.37L560.66-38.37Q560.66-25.28 566.02-17.35L566.02-17.35L566.02-17.35Q571.39-9.41 582.12-9.41L582.12-9.41ZM738.23-76.88L751.17-76.88L747.94-59.83L747.94-5.00L747.94-5.00Q747.94 14.41 738.97 25.14L738.97 25.14L738.97 25.14Q730.00 35.87 712.36 35.87L712.36 35.87L712.36 35.87Q702.51 35.87 696.19 33.96L696.19 33.96L696.19 33.96Q689.87 32.05 683.11 26.31L683.11 26.31L683.11 13.23L683.11 13.23Q690.31 19.26 696.63 21.54L696.63 21.54L696.63 21.54Q702.95 23.81 712.36 23.81L712.36 23.81L712.36 23.81Q723.68 23.81 729.34 16.68L729.34 16.68L729.34 16.68Q735.00 9.55 735.00-3.23L735.00-3.23L735.00-7.06L735.00-7.06Q730.15-3.82 725.22-2.43L725.22-2.43L725.22-2.43Q720.30-1.03 713.54-1.03L713.54-1.03L713.54-1.03Q696.93-1.03 688.47-11.02L688.47-11.02L688.47-11.02Q680.02-21.02 680.02-39.10L680.02-39.10L680.02-39.10Q680.02-57.77 688.84-68.13L688.84-68.13L688.84-68.13Q697.66-78.50 715.01-78.50L715.01-78.50L715.01-78.50Q721.33-78.50 725.96-77.25L725.96-77.25L725.96-77.25Q730.59-76.00 737.20-73.06L737.20-73.06L738.23-76.88ZM713.68-12.94L713.68-12.94Q720.15-12.94 725.00-14.55L725.00-14.55L725.00-14.55Q729.85-16.17 735.00-19.70L735.00-19.70L735.00-64.09L735.00-64.09Q730.30-65.71 726.11-66.37L726.11-66.37L726.11-66.37Q721.92-67.03 716.48-67.03L716.48-67.03L716.48-67.03Q705.01-67.03 699.50-59.68L699.50-59.68L699.50-59.68Q693.99-52.33 693.99-39.25L693.99-39.25L693.99-39.25Q693.99-12.94 713.68-12.94L713.68-12.94Z" fill="#456caa"></path></g></g><style>text {
  font-size: 64px;
  font-family: Arial Black;
  dominant-baseline: central;
  text-anchor: middle;
}</style></svg>